<svg xmlns="http://www.w3.org/2000/svg" version="1.1" xmlns:xlink="http://www.w3.org/1999/xlink" xmlns:svgjs="http://svgjs.com/svgjs" width="1440" height="560" preserveAspectRatio="none" viewBox="0 0 1440 560"><g mask="url(&quot;#SvgjsMask1011&quot;)" fill="none"><rect width="1440" height="560" x="0" y="0" fill="rgba(191, 28, 172, 1)"></rect><path d="M1488 560L0 560 L0 364.04Q0.9 292.94, 72 293.84Q144.39 294.23, 144 366.62Q185.32 335.94, 216 377.27Q238.98 328.25, 288 351.23Q337.06 280.3, 408 329.36Q460.59 261.95, 528 314.54Q601.71 268.25, 648 341.97Q717.74 291.71, 768 361.44Q804.16 277.61, 888 313.77Q908.37 262.13, 960 282.5Q1002.17 252.67, 1032 294.84Q1102.82 245.66, 1152 316.48Q1217.33 309.81, 1224 375.13Q1236.24 315.38, 1296 327.62Q1369.36 280.98, 1416 354.33Q1428.96 295.29, 1488 308.25z" fill="rgba(37, 7, 32, 1)"></path><path d="M1464 560L0 560 L0 418.93Q41.06 387.99, 72 429.05Q100.44 337.49, 192 365.92Q239.34 341.26, 264 388.61Q327.38 379.99, 336 443.37Q363.57 350.94, 456 378.51Q526.17 328.68, 576 398.85Q614.31 317.17, 696 355.48Q743.57 331.05, 768 378.62Q831.88 370.5, 840 434.39Q858.63 333.02, 960 351.66Q1036.26 307.93, 1080 384.19Q1160.18 344.37, 1200 424.55Q1224.32 376.87, 1272 401.19Q1349.94 359.13, 1392 437.08Q1400.56 373.63, 1464 382.19z" fill="rgba(84, 28, 103, 1)"></path><path d="M1512 560L0 560 L0 501.67Q41.31 422.98, 120 464.29Q189.95 414.24, 240 484.19Q250.03 422.22, 312 432.24Q384.47 384.71, 432 457.18Q507.19 412.37, 552 487.55Q601.82 465.37, 624 515.19Q639.34 410.53, 744 425.87Q810.96 372.83, 864 439.79Q939.09 442.88, 936 517.97Q954.18 416.15, 1056 434.34Q1123.33 381.67, 1176 449Q1197.96 398.96, 1248 420.92Q1290.69 391.62, 1320 434.31Q1394.04 436.35, 1392 510.38Q1446.8 445.18, 1512 499.98z" fill="rgba(136, 53, 177, 1)"></path><path d="M1536 560L0 560 L0 492.99Q43.24 464.23, 72 507.46Q130.96 494.42, 144 553.39Q187.24 476.63, 264 519.86Q347.94 483.8, 384 567.73Q409.32 521.05, 456 546.37Q512.17 530.54, 528 586.71Q558.08 544.79, 600 574.87Q633.64 488.51, 720 522.16Q785.51 467.67, 840 533.18Q886.53 507.71, 912 554.24Q918.64 488.88, 984 495.53Q1035.47 475, 1056 526.48Q1128.96 479.44, 1176 552.41Q1229.78 486.19, 1296 539.98Q1372.94 496.92, 1416 573.87Q1446.85 484.71, 1536 515.56z" fill="white"></path></g><defs><mask id="SvgjsMask1011"><rect width="1440" height="560" fill="#ffffff"></rect></mask></defs></svg>